<svg xmlns="http://www.w3.org/2000/svg" width="1280" height="205" viewBox="0 0 1280 205" role="img" aria-labelledby="title desc">
  <title id="title">Relja Diklić technical range</title>
  <desc id="desc">TypeScript, React, Next.js, React Native, Expo, Node.js, Python, PostgreSQL, Supabase, Firebase, Strapi, Vercel, Cloudflare, and GitHub Actions.</desc>
  <defs>
    <linearGradient id="bg" x1="0" y1="0" x2="1" y2="1">
      <stop offset="0" stop-color="#0a0d16"/>
      <stop offset="1" stop-color="#12101e"/>
    </linearGradient>
    <style>text { font-family: -apple-system, BlinkMacSystemFont, "Segoe UI", Inter, Arial, sans-serif; }</style>
  </defs>
  <rect width="1280" height="205" rx="24" fill="url(#bg)"/>
  <rect x="1" y="1" width="1278" height="203" rx="23" fill="none" stroke="#b9c3ff" stroke-opacity="0.12"/>
  <text x="40" y="41" fill="#8f99b4" font-size="12" font-weight="750" letter-spacing="1.5">TECHNICAL RANGE / PRODUCT TO PRODUCTION</text>
  <path d="M40 56H1240" stroke="#c4cbff" stroke-opacity="0.08"/>

  <g font-size="14" font-weight="650" fill="#e9ecf6">
    <g><rect x="40" y="72" width="158" height="42" rx="12" fill="#151927" stroke="#54a7ff" stroke-opacity="0.25"/><circle cx="59" cy="93" r="5" fill="#54a7ff"/><text x="119" y="98" text-anchor="middle">TypeScript</text></g>
    <g><rect x="212" y="72" width="158" height="42" rx="12" fill="#151927" stroke="#61dafb" stroke-opacity="0.25"/><circle cx="231" cy="93" r="5" fill="#61dafb"/><text x="291" y="98" text-anchor="middle">React</text></g>
    <g><rect x="384" y="72" width="158" height="42" rx="12" fill="#151927" stroke="#e6e9f2" stroke-opacity="0.22"/><circle cx="403" cy="93" r="5" fill="#e6e9f2"/><text x="463" y="98" text-anchor="middle">Next.js</text></g>
    <g><rect x="556" y="72" width="158" height="42" rx="12" fill="#151927" stroke="#a78bfa" stroke-opacity="0.28"/><circle cx="575" cy="93" r="5" fill="#a78bfa"/><text x="642" y="98" text-anchor="middle">React Native</text></g>
    <g><rect x="728" y="72" width="158" height="42" rx="12" fill="#151927" stroke="#e6e9f2" stroke-opacity="0.22"/><circle cx="747" cy="93" r="5" fill="#e6e9f2"/><text x="807" y="98" text-anchor="middle">Expo</text></g>
    <g><rect x="900" y="72" width="158" height="42" rx="12" fill="#151927" stroke="#75c56c" stroke-opacity="0.28"/><circle cx="919" cy="93" r="5" fill="#75c56c"/><text x="979" y="98" text-anchor="middle">Node.js</text></g>
    <g><rect x="1072" y="72" width="168" height="42" rx="12" fill="#151927" stroke="#62a8d5" stroke-opacity="0.28"/><circle cx="1091" cy="93" r="5" fill="#62a8d5"/><text x="1159" y="98" text-anchor="middle">Python</text></g>

    <g><rect x="40" y="128" width="158" height="42" rx="12" fill="#151927" stroke="#5f9ac4" stroke-opacity="0.28"/><circle cx="59" cy="149" r="5" fill="#5f9ac4"/><text x="119" y="154" text-anchor="middle">PostgreSQL</text></g>
    <g><rect x="212" y="128" width="158" height="42" rx="12" fill="#151927" stroke="#55d6a3" stroke-opacity="0.28"/><circle cx="231" cy="149" r="5" fill="#55d6a3"/><text x="291" y="154" text-anchor="middle">Supabase</text></g>
    <g><rect x="384" y="128" width="158" height="42" rx="12" fill="#151927" stroke="#ffcb57" stroke-opacity="0.3"/><circle cx="403" cy="149" r="5" fill="#ffcb57"/><text x="463" y="154" text-anchor="middle">Firebase</text></g>
    <g><rect x="556" y="128" width="158" height="42" rx="12" fill="#151927" stroke="#9d83ff" stroke-opacity="0.28"/><circle cx="575" cy="149" r="5" fill="#9d83ff"/><text x="635" y="154" text-anchor="middle">Strapi</text></g>
    <g><rect x="728" y="128" width="158" height="42" rx="12" fill="#151927" stroke="#e6e9f2" stroke-opacity="0.22"/><circle cx="747" cy="149" r="5" fill="#e6e9f2"/><text x="807" y="154" text-anchor="middle">Vercel</text></g>
    <g><rect x="900" y="128" width="158" height="42" rx="12" fill="#151927" stroke="#ff9c4b" stroke-opacity="0.3"/><circle cx="919" cy="149" r="5" fill="#ff9c4b"/><text x="979" y="154" text-anchor="middle">Cloudflare</text></g>
    <g><rect x="1072" y="128" width="168" height="42" rx="12" fill="#151927" stroke="#e6e9f2" stroke-opacity="0.22"/><circle cx="1091" cy="149" r="5" fill="#e6e9f2"/><text x="1163" y="154" text-anchor="middle">GitHub Actions</text></g>
  </g>
  <text x="40" y="191" fill="#747e99" font-size="11">Also: OpenAI · Twilio · REST APIs · maps · storage · testing · observability · security controls</text>
</svg>
