<svg xmlns="http://www.w3.org/2000/svg" width="1280" height="205" viewBox="0 0 1280 205" role="img" aria-labelledby="title desc">
  <title id="title">Relja Diklić technical range</title>
  <desc id="desc">TypeScript, React, Next.js, React Native, Expo, Node.js, Python, PostgreSQL, Supabase, Firebase, Strapi, Vercel, Cloudflare, and GitHub Actions.</desc>
  <defs>
    <linearGradient id="bg" x1="0" y1="0" x2="1" y2="1">
      <stop offset="0" stop-color="#f8fbff"/>
      <stop offset="1" stop-color="#f8f6ff"/>
    </linearGradient>
    <style>text { font-family: -apple-system, BlinkMacSystemFont, "Segoe UI", Inter, Arial, sans-serif; }</style>
  </defs>
  <rect width="1280" height="205" rx="24" fill="url(#bg)"/>
  <rect x="1" y="1" width="1278" height="203" rx="23" fill="none" stroke="#344267" stroke-opacity="0.12"/>
  <text x="40" y="41" fill="#68728d" font-size="12" font-weight="750" letter-spacing="1.5">TECHNICAL RANGE / PRODUCT TO PRODUCTION</text>
  <path d="M40 56H1240" stroke="#344267" stroke-opacity="0.1"/>

  <g font-size="14" font-weight="650" fill="#20283d">
    <g><rect x="40" y="72" width="158" height="42" rx="12" fill="#fff" stroke="#3178c6" stroke-opacity="0.25"/><circle cx="59" cy="93" r="5" fill="#3178c6"/><text x="119" y="98" text-anchor="middle">TypeScript</text></g>
    <g><rect x="212" y="72" width="158" height="42" rx="12" fill="#fff" stroke="#22a7d6" stroke-opacity="0.25"/><circle cx="231" cy="93" r="5" fill="#22a7d6"/><text x="291" y="98" text-anchor="middle">React</text></g>
    <g><rect x="384" y="72" width="158" height="42" rx="12" fill="#fff" stroke="#30384f" stroke-opacity="0.22"/><circle cx="403" cy="93" r="5" fill="#20283d"/><text x="463" y="98" text-anchor="middle">Next.js</text></g>
    <g><rect x="556" y="72" width="158" height="42" rx="12" fill="#fff" stroke="#7357ff" stroke-opacity="0.25"/><circle cx="575" cy="93" r="5" fill="#7357ff"/><text x="642" y="98" text-anchor="middle">React Native</text></g>
    <g><rect x="728" y="72" width="158" height="42" rx="12" fill="#fff" stroke="#1f2433" stroke-opacity="0.22"/><circle cx="747" cy="93" r="5" fill="#1f2433"/><text x="807" y="98" text-anchor="middle">Expo</text></g>
    <g><rect x="900" y="72" width="158" height="42" rx="12" fill="#fff" stroke="#4f9a45" stroke-opacity="0.25"/><circle cx="919" cy="93" r="5" fill="#4f9a45"/><text x="979" y="98" text-anchor="middle">Node.js</text></g>
    <g><rect x="1072" y="72" width="168" height="42" rx="12" fill="#fff" stroke="#3776ab" stroke-opacity="0.25"/><circle cx="1091" cy="93" r="5" fill="#3776ab"/><text x="1159" y="98" text-anchor="middle">Python</text></g>

    <g><rect x="40" y="128" width="158" height="42" rx="12" fill="#fff" stroke="#336791" stroke-opacity="0.25"/><circle cx="59" cy="149" r="5" fill="#336791"/><text x="119" y="154" text-anchor="middle">PostgreSQL</text></g>
    <g><rect x="212" y="128" width="158" height="42" rx="12" fill="#fff" stroke="#2da876" stroke-opacity="0.25"/><circle cx="231" cy="149" r="5" fill="#2da876"/><text x="291" y="154" text-anchor="middle">Supabase</text></g>
    <g><rect x="384" y="128" width="158" height="42" rx="12" fill="#fff" stroke="#f2a51a" stroke-opacity="0.3"/><circle cx="403" cy="149" r="5" fill="#f2a51a"/><text x="463" y="154" text-anchor="middle">Firebase</text></g>
    <g><rect x="556" y="128" width="158" height="42" rx="12" fill="#fff" stroke="#6847ff" stroke-opacity="0.25"/><circle cx="575" cy="149" r="5" fill="#6847ff"/><text x="635" y="154" text-anchor="middle">Strapi</text></g>
    <g><rect x="728" y="128" width="158" height="42" rx="12" fill="#fff" stroke="#30384f" stroke-opacity="0.22"/><circle cx="747" cy="149" r="5" fill="#20283d"/><text x="807" y="154" text-anchor="middle">Vercel</text></g>
    <g><rect x="900" y="128" width="158" height="42" rx="12" fill="#fff" stroke="#f48120" stroke-opacity="0.28"/><circle cx="919" cy="149" r="5" fill="#f48120"/><text x="979" y="154" text-anchor="middle">Cloudflare</text></g>
    <g><rect x="1072" y="128" width="168" height="42" rx="12" fill="#fff" stroke="#30384f" stroke-opacity="0.22"/><circle cx="1091" cy="149" r="5" fill="#20283d"/><text x="1163" y="154" text-anchor="middle">GitHub Actions</text></g>
  </g>
  <text x="40" y="191" fill="#8b93a8" font-size="11">Also: OpenAI · Twilio · REST APIs · maps · storage · testing · observability · security controls</text>
</svg>
