<svg xmlns="http://www.w3.org/2000/svg" width="620" height="325" viewBox="0 0 620 325" role="img" aria-labelledby="title"><title id="title">Mafia. Trust no one. Open-source realtime hidden-role game.</title><style>@keyframes lift{50%{transform:translateY(-12px)}}@keyframes pulse{50%{opacity:1}}@keyframes trace{to{stroke-dashoffset:-800}}.card{animation:lift 7s ease-in-out infinite}.c1{animation-delay:-1s}.c2{animation-delay:-2s}.ball{animation:lift 2s ease-in-out infinite}@media(prefers-reduced-motion:reduce){*{animation:none!important}}</style><rect width="620" height="325" fill="#070707"/><g aria-label="03 / OPEN SOURCE" fill="#999999" transform="translate(32 43) scale(0.015 -0.015)"><path transform="translate(0.00 0)" d="M307 -13C490 -13 568 149 568 345C568 541 490 704 307 704C124 704 47 541 47 345C47 149 124 -13 307 -13ZM307 51C171 51 123 188 123 345C123 503 171 640 307 640C444 640 492 503 492 345C492 188 444 51 307 51Z"/><path transform="translate(661.67 0)" d="M302 -13C445 -13 541 61 541 191C541 273 500 335 407 364V366C477 394 515 440 515 517C515 636 414 704 301 704C136 704 55 611 55 487H131C131 561 162 640 301 640C400 640 439 579 439 517C439 434 385 393 310 393H240V329H314C385 329 465 296 465 191C465 105 417 51 297 51C164 51 112 125 112 231H36C36 78 134 -13 302 -13Z"/><path transform="translate(1293.33 0)" d=""/><path transform="translate(1559.00 0)" d="M79 0 360 715H294L13 0Z"/><path transform="translate(1978.67 0)" d=""/><path transform="translate(2244.33 0)" d="M384 -13C590 -13 727 143 727 358C727 573 590 728 384 728C177 728 40 573 40 358C40 143 177 -13 384 -13ZM384 51C207 51 116 189 116 358C116 527 207 664 384 664C560 664 651 527 651 358C651 189 560 51 384 51Z"/><path transform="translate(3058.00 0)" d="M149 0V302H351C483 302 582 359 582 509C582 659 483 715 351 715H76V0ZM149 366V651H358C455 651 506 606 506 509C506 411 455 366 358 366Z"/><path transform="translate(3709.67 0)" d="M572 0V64H149V341H517V405H149V651H561V715H76V0Z"/><path transform="translate(4359.33 0)" d="M149 0V612H151L538 0H627V715H554V103H552L165 715H76V0Z"/><path transform="translate(5109.00 0)" d=""/><path transform="translate(5374.67 0)" d="M333 -13C503 -13 583 79 583 195C583 340 470 376 323 408C218 431 133 451 133 547C133 621 190 664 295 664C416 664 471 608 483 509H559C548 649 450 728 295 728C148 728 57 658 57 544C57 413 170 377 287 350C434 317 508 299 507 193C507 114 462 51 330 51C181 51 113 126 103 237H27C37 76 161 -13 333 -13Z"/><path transform="translate(6037.33 0)" d="M384 -13C590 -13 727 143 727 358C727 573 590 728 384 728C177 728 40 573 40 358C40 143 177 -13 384 -13ZM384 51C207 51 116 189 116 358C116 527 207 664 384 664C560 664 651 527 651 358C651 189 560 51 384 51Z"/><path transform="translate(6851.00 0)" d="M340 -13C527 -13 609 89 609 241V715H536V241C536 113 472 51 340 51C208 51 144 113 144 241V715H71V241C71 89 153 -13 340 -13Z"/><path transform="translate(7577.67 0)" d="M149 0V297H367C558 297 493 30 526 0H604V6C565 18 622 298 458 331V333C536 353 591 418 591 513C591 644 508 715 356 715H76V0ZM149 361V651H343C466 651 518 603 518 512C518 412 452 361 338 361Z"/><path transform="translate(8264.33 0)" d="M368 -13C538 -13 649 98 666 254H590C582 155 519 51 368 51C196 51 116 197 116 357C116 517 195 664 368 664C514 664 573 567 587 487H663C645 621 536 728 369 728C173 728 40 573 40 357C40 140 174 -13 368 -13Z"/><path transform="translate(9008.00 0)" d="M572 0V64H149V341H517V405H149V651H561V715H76V0Z"/></g><defs><linearGradient id="card"><stop stop-color="#292929"/><stop offset="1" stop-color="#090909"/></linearGradient></defs><g transform="translate(340 65) rotate(-22 50 80)"><g class="card c0"><rect width="115" height="165" rx="9" fill="url(#card)" stroke="#666"/><rect x="9" y="9" width="97" height="147" rx="5" fill="none" stroke="#444"/><g transform="translate(25 51) scale(0.5185185185185185)"><path d="M128.852 4.8014C118.084 -3.42162 97.2053 0.831763 83.5104 3.55574L83.1831 4.81558C90.7982 3.60398 99.4408 3.45643 105.686 6.60319C109.824 8.68592 111.995 12.6187 111.215 16.9515C109.827 24.6552 102.187 32.1178 95.7555 36.9074C86.5502 43.76 76.1827 49.0236 65.0507 52.5222L59.7323 66.5165C58.2002 70.5458 54.6066 73.6188 50.1386 74.6517C50.1141 74.6574 50.0897 74.663 50.0651 74.6687C41.707 76.5953 29.9815 77.7814 22.2808 74.1551C17.7392 72.0185 15.5221 67.8275 16.5405 63.2082C18.461 54.4998 27.8072 46.3081 35.3763 41.2176C45.854 34.1721 57.5028 29.0732 70.0386 26.0228C71.9746 25.5519 74.0787 25.1149 76.2683 24.7659L77.9413 20.3679C77.0788 20.5409 76.2378 20.7169 75.4244 20.8984C57.2673 24.9731 40.2114 32.2909 25.2718 42.6647C14.8492 49.9003 2.75992 61.1736 0.334725 73.3039C-1.06902 80.3322 1.99231 86.8017 8.5798 90.4989C19.1461 96.4321 35.15 95.964 47.3831 93.7649C48.3404 93.5919 49.2944 93.4102 50.2455 93.2201L55.4264 79.5945C56.9187 75.6732 60.3685 72.657 64.6867 71.5418C79.8128 67.6459 93.9666 61.3438 106.802 53.0187C116.686 46.606 126.993 37.5885 132.231 27.4729C136.229 19.7606 136.538 10.6665 128.855 4.8014H128.852Z" fill="#777777"/></g><g aria-label="?" fill="#aaa" transform="translate(44 134) scale(0.032 -0.032)"><path transform="translate(0.00 0)" d="M248 180C248 300 292 329 349 377C400 418 458 460 458 549C458 657 374 728 248 728C97 728 16 625 16 491H89C89 612 159 663 250 663C336 663 385 617 385 548C385 480 342 449 293 409C227 355 175 311 175 180ZM257 0V84H173V0Z"/></g></g></g><g transform="translate(390 85) rotate(-3 50 80)"><g class="card c1"><rect width="115" height="165" rx="9" fill="url(#card)" stroke="#666"/><rect x="9" y="9" width="97" height="147" rx="5" fill="none" stroke="#444"/><g transform="translate(25 51) scale(0.5185185185185185)"><path d="M128.852 4.8014C118.084 -3.42162 97.2053 0.831763 83.5104 3.55574L83.1831 4.81558C90.7982 3.60398 99.4408 3.45643 105.686 6.60319C109.824 8.68592 111.995 12.6187 111.215 16.9515C109.827 24.6552 102.187 32.1178 95.7555 36.9074C86.5502 43.76 76.1827 49.0236 65.0507 52.5222L59.7323 66.5165C58.2002 70.5458 54.6066 73.6188 50.1386 74.6517C50.1141 74.6574 50.0897 74.663 50.0651 74.6687C41.707 76.5953 29.9815 77.7814 22.2808 74.1551C17.7392 72.0185 15.5221 67.8275 16.5405 63.2082C18.461 54.4998 27.8072 46.3081 35.3763 41.2176C45.854 34.1721 57.5028 29.0732 70.0386 26.0228C71.9746 25.5519 74.0787 25.1149 76.2683 24.7659L77.9413 20.3679C77.0788 20.5409 76.2378 20.7169 75.4244 20.8984C57.2673 24.9731 40.2114 32.2909 25.2718 42.6647C14.8492 49.9003 2.75992 61.1736 0.334725 73.3039C-1.06902 80.3322 1.99231 86.8017 8.5798 90.4989C19.1461 96.4321 35.15 95.964 47.3831 93.7649C48.3404 93.5919 49.2944 93.4102 50.2455 93.2201L55.4264 79.5945C56.9187 75.6732 60.3685 72.657 64.6867 71.5418C79.8128 67.6459 93.9666 61.3438 106.802 53.0187C116.686 46.606 126.993 37.5885 132.231 27.4729C136.229 19.7606 136.538 10.6665 128.855 4.8014H128.852Z" fill="#E51F1F"/></g><g aria-label="?" fill="#E51F1F" transform="translate(44 134) scale(0.032 -0.032)"><path transform="translate(0.00 0)" d="M248 180C248 300 292 329 349 377C400 418 458 460 458 549C458 657 374 728 248 728C97 728 16 625 16 491H89C89 612 159 663 250 663C336 663 385 617 385 548C385 480 342 449 293 409C227 355 175 311 175 180ZM257 0V84H173V0Z"/></g></g></g><g transform="translate(440 105) rotate(16 50 80)"><g class="card c2"><rect width="115" height="165" rx="9" fill="url(#card)" stroke="#666"/><rect x="9" y="9" width="97" height="147" rx="5" fill="none" stroke="#444"/><g transform="translate(25 51) scale(0.5185185185185185)"><path d="M128.852 4.8014C118.084 -3.42162 97.2053 0.831763 83.5104 3.55574L83.1831 4.81558C90.7982 3.60398 99.4408 3.45643 105.686 6.60319C109.824 8.68592 111.995 12.6187 111.215 16.9515C109.827 24.6552 102.187 32.1178 95.7555 36.9074C86.5502 43.76 76.1827 49.0236 65.0507 52.5222L59.7323 66.5165C58.2002 70.5458 54.6066 73.6188 50.1386 74.6517C50.1141 74.6574 50.0897 74.663 50.0651 74.6687C41.707 76.5953 29.9815 77.7814 22.2808 74.1551C17.7392 72.0185 15.5221 67.8275 16.5405 63.2082C18.461 54.4998 27.8072 46.3081 35.3763 41.2176C45.854 34.1721 57.5028 29.0732 70.0386 26.0228C71.9746 25.5519 74.0787 25.1149 76.2683 24.7659L77.9413 20.3679C77.0788 20.5409 76.2378 20.7169 75.4244 20.8984C57.2673 24.9731 40.2114 32.2909 25.2718 42.6647C14.8492 49.9003 2.75992 61.1736 0.334725 73.3039C-1.06902 80.3322 1.99231 86.8017 8.5798 90.4989C19.1461 96.4321 35.15 95.964 47.3831 93.7649C48.3404 93.5919 49.2944 93.4102 50.2455 93.2201L55.4264 79.5945C56.9187 75.6732 60.3685 72.657 64.6867 71.5418C79.8128 67.6459 93.9666 61.3438 106.802 53.0187C116.686 46.606 126.993 37.5885 132.231 27.4729C136.229 19.7606 136.538 10.6665 128.855 4.8014H128.852Z" fill="#777777"/></g><g aria-label="?" fill="#aaa" transform="translate(44 134) scale(0.032 -0.032)"><path transform="translate(0.00 0)" d="M248 180C248 300 292 329 349 377C400 418 458 460 458 549C458 657 374 728 248 728C97 728 16 625 16 491H89C89 612 159 663 250 663C336 663 385 617 385 548C385 480 342 449 293 409C227 355 175 311 175 180ZM257 0V84H173V0Z"/></g></g></g><g aria-label="Mafia." fill="#eaeaea" transform="translate(28 167) scale(0.07 -0.07)"><path transform="translate(0.00 0)" d="M149 0V612H151L386 0H452L688 612H690V0H763V715H662L420 98H418L177 715H76V0Z"/><path transform="translate(810.43 0)" d="M200 -13C283 -13 344 19 379 77H381C385 13 410 -4 453 -4C465 -4 476 -2 487 0V47C481 46 477 46 473 46C450 46 444 65 444 106V361C444 483 361 523 267 523C119 523 62 446 57 356H126C131 431 166 466 265 466C347 466 381 431 381 379C381 318 327 312 243 297C111 274 33 239 33 129C33 44 98 -13 200 -13ZM208 44C134 44 101 76 101 135C101 200 152 225 251 243C312 253 366 265 381 286V191C381 99 312 44 208 44Z"/><path transform="translate(1295.86 0)" d="M217 664C231 664 239 663 257 662V717C234 720 222 721 208 721C135 721 91 696 91 585V510H19V453H91V0H156V453H257V510H156V586C156 649 168 664 217 664Z"/><path transform="translate(1529.29 0)" d="M134 612V696H50V612ZM125 0V510H60V0Z"/><path transform="translate(1685.71 0)" d="M200 -13C283 -13 344 19 379 77H381C385 13 410 -4 453 -4C465 -4 476 -2 487 0V47C481 46 477 46 473 46C450 46 444 65 444 106V361C444 483 361 523 267 523C119 523 62 446 57 356H126C131 431 166 466 265 466C347 466 381 431 381 379C381 318 327 312 243 297C111 274 33 239 33 129C33 44 98 -13 200 -13ZM208 44C134 44 101 76 101 135C101 200 152 225 251 243C312 253 366 265 381 286V191C381 99 312 44 208 44Z"/><path transform="translate(2171.14 0)" d="M133 0V84H49V0Z"/></g><g aria-label="Trust no one." fill="#999999" transform="translate(32 211) scale(0.027 -0.027)"><path transform="translate(0.00 0)" d="M330 0V651H574V715H15V651H258V0Z"/><path transform="translate(573.19 0)" d="M272 522C200 522 153 473 127 406H125V510H60V0H125V285C125 384 193 458 285 458C295 458 306 457 316 455V519C304 521 290 522 272 522Z"/><path transform="translate(883.37 0)" d="M400 188C400 113 336 45 239 45C151 45 121 101 121 166V510H56V152C56 39 132 -12 223 -12C314 -12 369 30 398 72H400V0H465V510H400Z"/><path transform="translate(1393.56 0)" d="M248 -13C374 -13 448 48 448 141C448 247 353 274 257 297C180 316 111 325 111 389C111 437 152 465 225 465C324 465 351 412 360 367H428C419 451 357 522 224 522C109 522 43 468 43 385C43 286 138 263 232 239C303 222 379 214 379 139C379 89 346 44 249 44C142 44 96 97 92 167H24C27 65 105 -13 248 -13Z"/><path transform="translate(1850.74 0)" d="M256 510H153V680H88V510H13V453H88V132C88 21 134 -4 208 -4C224 -4 236 -3 256 0V55C241 54 233 53 217 53C167 53 153 68 153 131V453H256Z"/><path transform="translate(2115.93 0)" d=""/><path transform="translate(2320.11 0)" d="M302 522C211 522 156 479 127 437H125V510H60V0H125V322C125 397 189 465 286 465C374 465 404 409 404 344V0H469V358C469 471 393 522 302 522Z"/><path transform="translate(2830.30 0)" d="M277 -14C430 -14 522 96 522 254C522 413 430 523 277 523C124 523 32 413 32 254C32 96 124 -14 277 -14ZM277 43C158 43 100 137 100 254C100 372 158 466 277 466C396 466 454 372 454 254C454 137 396 43 277 43Z"/><path transform="translate(3369.48 0)" d=""/><path transform="translate(3573.67 0)" d="M277 -14C430 -14 522 96 522 254C522 413 430 523 277 523C124 523 32 413 32 254C32 96 124 -14 277 -14ZM277 43C158 43 100 137 100 254C100 372 158 466 277 466C396 466 454 372 454 254C454 137 396 43 277 43Z"/><path transform="translate(4112.85 0)" d="M302 522C211 522 156 479 127 437H125V510H60V0H125V322C125 397 189 465 286 465C374 465 404 409 404 344V0H469V358C469 471 393 522 302 522Z"/><path transform="translate(4623.04 0)" d="M506 278C506 420 423 523 276 523C129 523 33 418 33 255C33 100 120 -14 276 -14C404 -14 474 63 499 156H433C423 114 382 42 277 42C157 42 102 139 101 242H505C506 250 506 264 506 278ZM101 299C106 394 174 467 273 467C378 467 437 390 437 299Z"/><path transform="translate(5145.22 0)" d="M133 0V84H49V0Z"/></g><g aria-label="REALTIME / HIDDEN ROLES" fill="#888888" transform="translate(32 288) scale(0.015 -0.015)"><path transform="translate(0.00 0)" d="M149 0V297H367C558 297 493 30 526 0H604V6C565 18 622 298 458 331V333C536 353 591 418 591 513C591 644 508 715 356 715H76V0ZM149 361V651H343C466 651 518 603 518 512C518 412 452 361 338 361Z"/><path transform="translate(686.67 0)" d="M572 0V64H149V341H517V405H149V651H561V715H76V0Z"/><path transform="translate(1336.33 0)" d="M84 0 156 198H477L549 0H627L358 715H276L9 0ZM316 646H318L454 263H180Z"/><path transform="translate(2018.00 0)" d="M535 0V64H149V715H76V0Z"/><path transform="translate(2613.67 0)" d="M330 0V651H574V715H15V651H258V0Z"/><path transform="translate(3248.33 0)" d="M149 0V715H76V0Z"/><path transform="translate(3520.00 0)" d="M149 0V612H151L386 0H452L688 612H690V0H763V715H662L420 98H418L177 715H76V0Z"/><path transform="translate(4405.67 0)" d="M572 0V64H149V341H517V405H149V651H561V715H76V0Z"/><path transform="translate(5055.33 0)" d=""/><path transform="translate(5321.00 0)" d="M79 0 360 715H294L13 0Z"/><path transform="translate(5740.67 0)" d=""/><path transform="translate(6006.33 0)" d="M149 0V342H554V0H626V715H554V406H149V715H76V0Z"/><path transform="translate(6756.00 0)" d="M149 0V715H76V0Z"/><path transform="translate(7027.67 0)" d="M332 0C532 0 646 135 646 356C646 577 535 715 335 715H76V0ZM149 64V651H334C514 651 570 515 570 356C570 198 511 64 332 64Z"/><path transform="translate(7761.33 0)" d="M332 0C532 0 646 135 646 356C646 577 535 715 335 715H76V0ZM149 64V651H334C514 651 570 515 570 356C570 198 511 64 332 64Z"/><path transform="translate(8495.00 0)" d="M572 0V64H149V341H517V405H149V651H561V715H76V0Z"/><path transform="translate(9144.67 0)" d="M149 0V612H151L538 0H627V715H554V103H552L165 715H76V0Z"/><path transform="translate(9894.33 0)" d=""/><path transform="translate(10160.00 0)" d="M149 0V297H367C558 297 493 30 526 0H604V6C565 18 622 298 458 331V333C536 353 591 418 591 513C591 644 508 715 356 715H76V0ZM149 361V651H343C466 651 518 603 518 512C518 412 452 361 338 361Z"/><path transform="translate(10846.67 0)" d="M384 -13C590 -13 727 143 727 358C727 573 590 728 384 728C177 728 40 573 40 358C40 143 177 -13 384 -13ZM384 51C207 51 116 189 116 358C116 527 207 664 384 664C560 664 651 527 651 358C651 189 560 51 384 51Z"/><path transform="translate(11660.33 0)" d="M535 0V64H149V715H76V0Z"/><path transform="translate(12256.00 0)" d="M572 0V64H149V341H517V405H149V651H561V715H76V0Z"/><path transform="translate(12905.67 0)" d="M333 -13C503 -13 583 79 583 195C583 340 470 376 323 408C218 431 133 451 133 547C133 621 190 664 295 664C416 664 471 608 483 509H559C548 649 450 728 295 728C148 728 57 658 57 544C57 413 170 377 287 350C434 317 508 299 507 193C507 114 462 51 330 51C181 51 113 126 103 237H27C37 76 161 -13 333 -13Z"/></g></svg>